<?xml version="1.0" encoding="UTF-8"?>
<svg id="Layer_1" data-name="Layer 1" xmlns="http://www.w3.org/2000/svg" viewBox="0 0 256 256">
  <defs>
    <style>
      .cls-1 {
        fill: #7e56a2;
      }
    </style>
  </defs>
  <path class="cls-1" d="M146.59,104.86l12.98,5.11-12.98,4.83v6.91l22.25-8.98v-5.52l-22.25-8.98v6.63Z"/>
  <path d="M27.35,130.56c-6.21,0-10.78,2.76-11.19,8.57h6.91v-.14c.14-1.94,1.94-3.32,3.87-3.18,2.62,0,3.87,1.52,3.87,4.15v1.24h-3.18c-6.79,0-12.31,2.07-12.31,8.57v.28c0,5.25,3.87,7.6,8.57,7.6,2.9,.14,5.53-1.24,7.19-3.45v3.03h7.05v-17.41c-.15-6.63-4.7-9.25-10.78-9.25h0Zm-1.52,21.97c-2.49,0-3.59-1.24-3.59-3.04v-.28c0-2.35,1.8-3.32,5.39-3.32h2.9v2.49c.14,2.76-2.21,4.14-4.7,4.14h0Zm28.88-.28c-3.45,0-5.25-2.35-5.25-7.6v-.83c0-5.11,2.07-7.6,5.25-7.6,2.49,0,3.87,1.66,4.28,4.15h6.91c-.56-6.77-5.53-9.81-11.33-9.81-6.91,0-12.44,4.7-12.44,13.54v.28c0,8.84,5.25,13.26,12.44,13.26s11.06-4.28,11.6-10.09h-6.63c-.56,2.91-2.35,4.7-4.83,4.7h0Zm26.94,0c-3.45,0-5.25-2.35-5.25-7.6v-.83c0-5.11,2.07-7.6,5.25-7.6,2.49,0,3.87,1.66,4.28,4.15h6.91c-.56-6.77-5.53-9.81-11.33-9.81-6.91,0-12.44,4.7-12.44,13.54v.28c0,8.84,5.25,13.26,12.44,13.26s11.06-4.28,11.47-10.09h-6.49c-.42,2.91-2.35,4.7-4.83,4.7h0Zm27.22,.14c-3.18,0-5.11-1.8-5.39-6.49h16.86v-3.04c0-8.57-5.39-12.3-11.88-12.3-7.05,0-12.44,4.83-12.44,13.54v.56c0,8.71,5.11,13.12,12.58,13.12,6.77,0,10.92-3.73,11.6-8.71h-6.77c-.28,2.07-2.35,3.59-4.56,3.32h0Zm-.42-16.86c2.9,0,4.7,1.66,4.83,5.53h-9.67c.56-4.15,2.62-5.39,4.83-5.53Z"/>
  <path d="M139.95,130.56c-3.32-.14-6.35,1.52-7.87,4.42v-3.87h-7.19v25.98h7.19v-16.58c.14-2.35,2.21-4.28,4.56-4.15,2.62,0,3.87,1.38,3.87,4.42v16.3h7.33v-17.41c0-6.34-3.18-9.1-7.88-9.1h0Zm21.42,18.24v-12.29h4.97v-5.39h-4.97v-7.87l-7.19,3.04v4.83h-3.18v5.39h3.04v13.12c0,5.25,2.62,7.87,8.29,7.87,1.38,0,2.76-.14,4.15-.56v-5.67c-.83,.28-1.66,.42-2.49,.42-1.66,0-2.62-.96-2.62-2.9h0Zm25.01-1.52v.69c-.14,2.35-2.21,4.28-4.56,4.15-2.62,0-3.73-1.38-3.73-4.42v-16.58h-7.33v17.55c0,6.08,3.45,8.98,8.15,8.98,3.18,.14,6.08-1.52,7.6-4.42v3.87h7.33v-26h-7.33l-.14,16.16Zm19.89-11.47v-4.83h-7.19v25.97h7.19v-13.4c0-4.28,2.9-5.81,7.87-5.81v-7.19c-3.58,0-6.76,2.08-7.87,5.26h0Zm34.41,6.91c0-8.57-5.39-12.16-11.88-12.16-7.05,0-12.44,4.83-12.44,13.54v.56c0,8.71,5.11,13.12,12.58,13.12,6.77,0,10.78-3.73,11.6-8.71h-6.77c-.56,2.21-2.62,3.59-4.83,3.45-3.18,0-5.11-1.8-5.39-6.49h16.86v-3.32h.28Zm-16.86-1.66c.56-4.28,2.62-5.53,4.97-5.53,2.9,0,4.7,1.66,4.83,5.53h-9.81Z"/>
</svg>