<?xml version="1.0" encoding="utf-8"?>
<!-- Generator: Adobe Illustrator 19.2.1, SVG Export Plug-In . SVG Version: 6.00 Build 0)  -->
<svg version="1.1" id="layer" xmlns="http://www.w3.org/2000/svg" xmlns:xlink="http://www.w3.org/1999/xlink" x="0px" y="0px"
	 viewBox="0 0 652 652" style="enable-background:new 0 0 652 652;" xml:space="preserve">
<style type="text/css">
	.st0{fill:#96928B;}
</style>
<g>
	<path class="st0" d="M98.1,370.4c22.9-10,57.7-64.8,64.7-79.9c-4.1,0-22.9,0.6-22.9,18.1c-3.1,0-6.1-3.6-5.9-7.9
		c0-7,7.1-14.1,31.1-14.1c10.1-16.5,25.9-38.4,36.5-45.8c4.5-3.1,4.6-2.4,1.9,0.8c-3.4,4.7-8.3,11.8-13.6,20.8
		c-8.6,14.1-17.7,33.2-28.9,52.4c-10.9,17.4-22.8,31.5-35.3,42.1c-11.4,9.3-22.9,15.2-30,16.7C92.6,374.2,93.1,372,98.1,370.4"/>
	<path class="st0" d="M269.5,236.3c-13.8,0-27.7-8-36.1-11.6c9.1-7.8,21.5-13.6,33.6-13.7C295.7,211,296.9,236.3,269.5,236.3
		 M267.6,208c-14.1-0.1-27.5,5.2-38.7,14.3c-14-6-42.1-23.4-72.4-23.4c-36.3,0-59.3,23.1-59.3,47.6c0,20.3,17.3,33.8,36.5,33.8
		c28.5,0,32.7-20.4,32.6-22.9c0-1.4-0.5-4.1-1.7-5.1c-0.7-0.5-1.6-0.4-1.6,0.4c0,7.8-14.8,23.6-33.1,23.7
		c-42,0.2-24.8-73.9,21.5-73.9c25.4,0,52.2,16.9,71.6,25.4c-12.3,13.3-25.5,31.3-44.6,69.3c-26.1,51.9-60.3,83.8-98.3,83.8
		c-21,0-42.4-13.6-42.4-46.6c0-55.9,74.2-71.2,74.2-13.9c0,23.5-16.2,35.8-29.7,36c-15.3,0-18.6-9.4-18.6-18.5
		c0-18.7,9.3-22.5,4.7-22.5c-16.7,0-20.6,44.2,16,44.2c23.4,0,37.5-20.6,37.8-40.7c0.2-19.1-12.1-37.7-41-37.7
		c-36.1,0-54.9,26.2-54.9,52.2c0.1,25.5,18.4,50.8,56.6,50.8c30.7,0,50.4-13.1,67.5-29c18.8-17.5,30.5-40.6,40.3-63
		c3.5,0.6,10.4,1.6,12.9,0.9c-1.8,2.8-6.9,12.7-4.3,12.3c1.8-0.3,3.9-6.3,10.2-13.1c2.3-2.5,6.2-4.9,10.3-6.7
		c7.8-3.4,5.4-9.1,1.2-9.1c-8.1,0-11.7,12.7-21,12.7c-2.7,0-6-0.6-7.8-1c6.1-14.8,21.2-45.5,35-57.8c6,2.6,25.7,12.3,40.2,12.3
		C301.8,242.5,306.4,208,267.6,208"/>
	<path class="st0" d="M290.7,295.3c0-3.7-3-6.7-6.7-6.7c-3.7,0-6.7,3-6.7,6.7c0,3.7,3,6.7,6.7,6.7C287.7,302,290.7,299,290.7,295.3
		 M460,340c-7.7,11.5-17.8,19.1-21.9,16.3c-4.1-2.8-0.6-14.8,7.2-26.3c7.7-11.5,17.6-19.2,21.7-16.5
		C471.1,316.3,467.8,328.5,460,340 M196.1,355.9c-14.9,0,12.4-41.7,24.9-41.7C236.7,314.2,209.8,355.9,196.1,355.9 M626.4,292.2
		l-30.2,0.1c0,0,6.9-10.3,10.9-16.4c0.6-1,1-1.8-0.8-1.8c-9,0-19.9,18.3-19.9,18.3l-119.9,0.3l5.6,5.5c0,0,99.8-2.2,112-2.4
		c-3.9,5.9-9.1,13.3-13.4,19.4c-12,17.1-22.2,30-33.3,37.5c-8.6,5.8-12.1,3.6-8.1-4.5c4.2-8.2,14.6-19.8,14.6-28.8c0-4-1.3-9-8.2-9
		c-10.9,0-21.8,11.6-23.4,13l8.5-12.7l-12.5,0c-0.8,1.2-1.6,2.5-2.6,3.9c-5.7,8.3-23.8,22.2-29.7,4.9c-1.5-5.4-5.3-10.5-11.8-10.5
		c-11.4,0-20.2,6.3-27.7,15.9c-0.5,0.7-21.2,30.9-32.7,30.9c-4.7,0-0.8-5.8,1.5-9.5c8.1-13.1,14-21,13.9-27.8
		c-0.1-5.1-2.7-8.1-9.1-8.1c-10.7,0-19.7,10.1-21.4,12.4c-0.1,0.1-0.1,0.1-0.1,0c0,0,5.6-12.4-7-12.4c-5.1,0-13,2.5-22.9,12.3l0,0
		l8.3-12l-12.8,0l-5,7.5c-3.4,5-9.4,6.1-12.2,6.7c5.5-3.7,6.5-15.3-4.5-15.3c-5.3,0-14.9,5.2-24.1,14.1l-0.1-0.1l8.8-13l-12.4,0
		c0,0-2.7,4-6.6,10c-10.2,15.6-30.2,35.6-38.9,35.6c-4.3,0-5-6.2,1.6-15.2c8.2-12.5,20-30.3,20-30.3h-12.5c0,0-5.3,7.7-11.4,17
		c-8.3,12.6-18.5,28.5-29,28.5c-6.3,0-3.3-9.7,1.2-16.7c6.5-9.9,19-28.7,19-28.7H236c0,0-4.1,6.1-6.1,9.2c0-6.5-3.8-9.6-11.6-9.6
		c-29.4,0-48.1,49.2-22.8,49.2c11.2,0.1,20.4-12.2,21.8-14.8c0.1,0,0.2-0.1,0.3,0c-0.7,6.7,2.5,14.7,10.6,14.7
		c10.6,0,21.9-16.1,21.9-16.1c-1.4,7.3,1,16.2,9.1,16.2c9.5,0,25-17.4,25.9-18.2c0.1-0.1,0.1,0,0,0c-6.5,9.7-12.1,17.9-12.1,17.9
		h12.4c0,0,2.7-4,6.6-9.9c14.9-22.3,30.2-36.7,41.2-37.2c0.1,0,0.1,0,0,0c-2.2,0.5-6.7,3.3-6.7,8.6c0,5.1,3.4,6.9,7,6.9
		c4.5,0,9.9-2.2,11.3-2.7l-22.8,34.4h12.5c0,0,8.6-13,12.9-19.3c11.1-15,24.6-26.9,32.4-26.9c5,0,0.6,6.4-1.2,9.1
		c-2,3-24.7,37.2-24.7,37.2l12.5,0c6.7-9.9,6.5-10,9.7-14.7c7.5-11.2,11-17.4,20.5-25.5c4.6-3.7,8.7-5.8,12.2-5.8
		c1.7,0,2.1,1.5,2.1,2.6c0,7-18.6,23.1-18.6,33.5c0,6.6,4.6,10.2,9.6,10.2c9.1,0,18.6-8.7,28.1-20.8c-3.3,9.7-0.1,22.2,12.3,22.2
		c14.6,0,32.6-21.3,33.8-34.4c5.6,6.9,17.2,3.3,22.8-1.6c-0.4,0.6-22.8,34.3-22.8,34.3l12.5,0c0,0,8-12,16.4-23.2
		c4.3-5.8,9.9-12.8,20-19.1c3.4-2.1,6.2-3.7,8-3.7c11.2,0-16.7,22.9-16.7,37.5c0,5.1,3.7,9.1,10.2,9.1c12.7,0,25-16.1,28.2-19.6
		c0.1-0.1,0.1,0,0.1,0c-10.2,14.4-22.8,34.5,1.4,34.5c2.8,0,7.1-0.7,9.1-2.8c3.6-3.7-1.4-2.7-3.1-2.7c-10.2,0-10.7-6.4-4.8-17
		c3.6-6.4,14.5-24,15.9-26c9.8-15,20.9-30.8,20.9-30.8l32.4-1V292.2z"/>
	<path class="st0" d="M73,444c0,2.4-0.1,4.7-1.8,6.6c-1.6,2-4.1,2.7-6.6,2.7c-2.4,0-4.9-0.5-6.6-2.4c-1.8-2-1.9-4.5-1.9-7v-15.5h3.1
		V444c0,1.5,0,3.5,0.9,4.7c1,1.5,3.1,1.9,4.7,1.9c1.6,0,3.3-0.5,4.4-1.7c1.2-1.4,1.2-3.2,1.2-4.9v-15.5H73V444z"/>
	<polygon class="st0" points="99.6,453 96.6,453 84.2,431.7 84.2,453 81.6,453 81.6,428.5 85.4,428.5 97,448.5 97,428.5 99.6,428.5 
			"/>
	<polygon class="st0" points="108.5,453 108.5,428.5 123.4,428.5 123.4,431.2 111.5,431.2 111.5,438.9 121.4,438.9 121.4,441.4 
		111.5,441.4 111.5,453 	"/>
	<path class="st0" d="M127.2,440.9c0-6.1,3-12.8,10-12.8c6.9,0,10,6.3,10,12.3c0,6-3.1,12.9-10,12.9
		C130.3,453.3,127.2,447.1,127.2,440.9 M144.1,440.7c0-2.2-0.4-4.7-1.5-6.7c-1.1-1.9-3-3.3-5.3-3.3c-5.5,0-7,5.9-7,10.3
		c0,4.2,1.7,9.9,6.9,9.9C142.5,450.8,144.1,444.9,144.1,440.7"/>
	<path class="st0" d="M168.4,453l-4.5-10.6h-6.8V453H154v-24.4h9.2c2,0,3.9,0.2,5.6,1.5c1.6,1.2,2.6,3.3,2.6,5.3
		c0,2.9-1.7,5.5-4.6,6.3l4.8,11.3H168.4z M162.8,439.9c1.6,0,3-0.1,4.2-1.4c0.9-0.9,1.2-2,1.2-3.2c0-1.4-0.5-2.6-1.7-3.4
		c-1.1-0.7-2.1-0.8-3.4-0.8h-6.1v8.7H162.8z"/>
	<path class="st0" d="M197.5,453.2h-1.9l-0.8-3c-1.5,2.2-4.1,3.2-6.8,3.2c-3.3,0-5.7-1.2-7.6-3.8c-1.9-2.5-2.6-5.5-2.6-8.6
		c0-6.4,3.3-12.8,10.6-12.8c4.7,0,7.7,2.6,8.8,7l-2.9,0.7c-0.6-3.1-3-5.2-6.2-5.2c-5.5,0-7.1,5.6-7.1,10.1c0,2.1,0.4,4.6,1.4,6.5
		c1.1,2.1,3.3,3.5,5.7,3.5c3.8,0,6.1-2.6,6.1-6.3v-1.4h-6.1v-2.6h9.2V453.2z"/>
	<polygon class="st0" points="222,453 206.2,453 206.2,428.5 221.7,428.5 221.7,431.2 209.3,431.2 209.3,438.9 219.1,438.9 
		219.1,441.4 209.3,441.4 209.3,450.3 222,450.3 	"/>
	<polygon class="st0" points="237.5,453 234.4,453 234.4,431.2 227.5,431.2 227.5,428.5 244.4,428.5 244.4,431.2 237.5,431.2 	"/>
	<polygon class="st0" points="258.9,453 255.8,453 255.8,431.2 248.9,431.2 248.9,428.5 265.8,428.5 265.8,431.2 258.9,431.2 	"/>
	<path class="st0" d="M287.2,453H284l-2.5-7.1h-9.1l-2.2,7.1h-2.6l7.9-24.4h3.5L287.2,453z M277.2,431.8l-3.8,11.7h7.5L277.2,431.8z
		"/>
	<path class="st0" d="M292.8,453v-24.4h9.2c1.9,0,3.4,0.1,5,1.1c1.6,1.1,2.6,2.8,2.6,4.8c0,2.8-1.6,4.8-4.3,5.5v0.1
		c3,0.6,5.1,3.1,5.1,6.2c0,2.1-0.7,3.9-2.4,5.2c-1.9,1.5-3.8,1.6-6,1.6H292.8z M300.6,439c1.5,0,3.2,0,4.5-0.9c1-0.7,1.5-2,1.5-3.2
		c0-1.5-0.6-2.5-1.8-3.2c-1.1-0.6-2.2-0.6-3.4-0.6h-5.5v8H300.6z M301.9,450.4c1.4,0,2.9-0.1,3.9-1c1-0.8,1.5-2,1.5-3.3
		c0-1.5-0.6-2.9-1.8-3.8c-1.2-0.9-2.7-0.9-4.1-0.9h-5.6v9H301.9z"/>
	<polygon class="st0" points="332.3,453 317.9,453 317.9,428.5 320.9,428.5 320.9,450.3 332.3,450.3 	"/>
	<polygon class="st0" points="354.1,453 338.2,453 338.2,428.5 353.7,428.5 353.7,431.2 341.3,431.2 341.3,438.9 351.1,438.9 
		351.1,441.4 341.3,441.4 341.3,450.3 354.1,450.3 	"/>
	<rect x="359.8" y="449" class="st0" width="4" height="4"/>
	<path class="st0" d="M384.7,445.8c1,3.4,3.8,5,7.2,5c1.5,0,3.2-0.3,4.4-1.2c0.9-0.7,1.5-2,1.5-3.1c0-2.5-2-3.5-4.2-4l-4.1-1
		c-1.6-0.4-3.1-0.8-4.4-2c-1.3-1.1-2-2.8-2-4.5c0-4.7,4.1-6.7,8.3-6.7c4.1,0,7.4,2,8.7,6l-2.8,0.7c-0.5-2.7-3.4-4.3-6-4.3
		c-2.3,0-5.2,1.2-5.2,3.9c0,2.7,2.1,3.3,4.4,3.9l3.7,0.9c1.6,0.4,3.2,0.8,4.5,1.9c1.5,1.2,2.3,2.9,2.3,4.8c0,2.2-1,4.2-2.7,5.6
		c-1.8,1.4-4.2,1.8-6.4,1.8c-5,0-8.3-2.2-9.9-6.9L384.7,445.8z"/>
	<rect x="408.1" y="428.5" class="st0" width="3.1" height="24.4"/>
	<polygon class="st0" points="438.3,453 435.3,453 422.9,431.7 422.9,453 420.3,453 420.3,428.5 424.1,428.5 435.7,448.5 
		435.7,428.5 438.3,428.5 	"/>
	<path class="st0" d="M463.3,445.4c-1.1,4.6-3.9,8-9.1,8c-7.1,0-9.9-6.8-9.9-12.8c0-6.3,3.1-12.3,10.2-12.3c4.9,0,7.8,3.3,8.8,7.8
		l-2.9,0.5c-0.9-3.1-2.4-5.8-6-5.8c-5.3,0-6.7,5.8-6.7,10c0,1.9,0.3,4.3,1.1,6.1c1,2.2,2.9,3.9,5.5,3.9c3.7,0,5.5-2.8,6.3-6
		L463.3,445.4z"/>
	<polygon class="st0" points="485.9,453 470.1,453 470.1,428.5 485.5,428.5 485.5,431.2 473.1,431.2 473.1,438.9 483,438.9 
		483,441.4 473.1,441.4 473.1,450.3 485.9,450.3 	"/>
	<path class="st0" d="M521.4,453h-17.1v-2.2h7.3v-18.5c-2,2.1-4.2,3.9-6.7,5.2v-3c2.9-1.5,5.5-3.4,7.5-5.9h2.2v22.2h6.8V453z"/>
	<path class="st0" d="M528.7,447.6c0.9,2.2,2.8,3.3,5.2,3.3c5.6,0,7.1-6.3,7.1-10.8h-0.1c-1.5,2.7-4,4.3-7.2,4.3
		c-4.6,0-8.1-3.4-8.1-8c0-4.7,3.7-8.3,8.5-8.3c7.2,0,9.6,5.8,9.6,12c0,6.2-2.5,13.2-9.9,13.2c-3.5,0-6.5-1.5-7.7-4.9L528.7,447.6z
		 M540.4,436.3c0-3.4-2.5-5.6-5.9-5.6c-3.5,0-5.8,2.5-5.8,5.8c0,3.3,2.6,5.5,5.9,5.5C537.6,442,540.4,439.4,540.4,436.3"/>
	<path class="st0" d="M548.7,440.8c0-5.6,2.4-12.6,9.1-12.6c3.4,0,5.7,1.4,7.3,4.2c1.5,2.5,2.1,5.6,2.1,8.4c0,5.4-2.6,12.5-9.2,12.5
		C551.3,453.3,548.7,446.4,548.7,440.8 M564,441.3c0-4.1-0.9-10.8-6.3-10.8c-5,0-6,6.2-6,10c0,4,1,10.4,6.2,10.4
		C562.9,451,564,445.1,564,441.3"/>
	<path class="st0" d="M575.3,453c0-8,3.5-15.8,8.6-21.8h-13.3l0.3-2.7h16.1v1.9c-2.5,3-4.6,6.3-6.1,9.9c-1.5,3.4-2.6,8.2-2.6,11.9
		v0.8H575.3z"/>
	<rect x="587.8" y="449" class="st0" width="4" height="4"/>
</g>
</svg>
