<svg version="1.2" xmlns="http://www.w3.org/2000/svg" viewBox="0 0 1590 311" width="1590" height="311"><style>.a{fill:#151d8e}</style><path fill-rule="evenodd" class="a" d="m243 303.8h-32.9v-30.8h-0.9c-20.5 25.9-53.4 37.8-78.1 37.8-83.9 0-130.3-55.5-130.3-128.4 0-123.4 81-179.3 157.5-179.3 69 0 122.1 32 122.5 100.7h-51.4c-2.1-39.9-29.6-58.8-72.8-58.8-69.9 0-104.4 70.4-104.4 135.8 0 54.7 29.2 88 80.6 88 50.6 0 78.1-33.7 89.2-80.6h-80.6l8.2-39.1h126.3zm39.4-87.2c0-70 48.1-131.3 121.3-131.3 58.4 0 92.9 32.1 92.9 91.4 0 74.5-45.6 132.9-121.3 132.9-58.4 0-92.9-33.7-92.9-93zm46.9 1.2c0 31.3 14.7 54.7 48.9 54.7 48.1 0 71.5-52.2 71.5-95.4 0-31.3-14.8-54.7-48.9-54.7-48.1 0-71.5 53.1-71.5 95.4z"/><path class="a" d="m550.4 31h25.9l-25.1 118.5h157.7l25.1-118.5h26l-58 272.8h-26l28.3-132.2h-157.8l-28.2 132.2h-26z"/><path fill-rule="evenodd" class="a" d="m763.1 211.8c-0.8 4.5-1.2 9.9-1.2 15.2 0 35.5 18.4 62.3 57.3 62.3 31.3 0 55.4-20.3 64.6-48.9h24c-13 43.9-43.2 69.1-89.7 69.1-52 0-80.2-32.4-80.2-83.6 0-62.3 38.9-125 106.5-125 47.4 0 74.9 31 74.9 76.8 0 11.1-0.4 22.2-2 34zm131.8-20.2c0-5.4 0.4-10.3 0.4-15.3 0-32.9-20.7-55-53.9-55-39.7 0-66.8 33.6-75.2 70.3z"/><path fill-rule="evenodd" class="a" d="m942.6 165.5c6.5-44.7 40.8-64.6 83.2-64.6 26.7 0 68.4 9.2 68.4 43.9 0 19.2-8.5 49-12.2 66.5-8.8 44.4-13 54.7-13 66.5 0 6.9 6.8 8 12.6 8 3.4 0 6.1-0.4 9.5-0.7l-3.4 19.1c-5.4 1.2-13.4 1.9-19.9 1.9-13.4 0-20.6-8.4-21-21.4 0-3.4 0.4-7.3 0.8-10.7l-0.8-0.8c-13.8 23-40.9 36.3-68.3 36.3-35.9 0-63.1-16-63.1-54.6 0-41.6 33.3-55 68.4-61.1 25.2-3.9 47.4-2 62.6-5.7 15.7-3.9 23.7-12.7 23.7-38.6 0-23.4-23.3-28.3-41.6-28.3-30.6 0-56.9 11.4-61.9 44.3zm119.2 32.8l-0.8-0.7c-7.7 9.5-31.3 10.3-43.5 11.1-29.4 2.3-77.9 3.8-77.9 45.1 0 25.2 21 35.5 43.9 35.5 38.6 0 63-23.3 70.6-57.7zm98.6-167.3h24l-58.8 272.8h-24zm21 75.6h35.5l12.6-59.6h24.1l-12.6 59.6h39.3l-3.8 20.3h-40.1l-27.1 126.4c-1.9 9.2-2.7 12.6-2.7 18.8 0 6.9 3.5 13.7 12.6 13.7 9.6 0 18.7-0.7 28.3-2.3l-4.2 21c-8 0.8-16.4 1.6-24.4 1.6-18 0-36.3-4.6-36.3-28.3 0-4.2 0.7-11.5 2.6-20.3l27.2-130.6h-35.6zm136-75.7h24.1l-24.1 111.6h0.8c13.7-23.3 39.7-41.7 69.1-41.7 34.4 0 59.5 15.3 59.5 53.1 0 6.2-1.1 14.2-3 23.3l-27.1 126.5h-24.1l27.5-127.2c1.6-6.1 2.7-13.4 2.7-19.9 0-26-19.9-35.5-41.3-35.5-34.7 0-66.4 31.3-77.1 81.4l-21.7 101.2h-24.1z"/><path class="a" d="m1589 0.8c0 0 10 116.1-96.1 137.4 0 0-59.9-67.9 96.1-137.4zm-0.9 131.1c0 0-31.2 56.3-86.3 33.3 0 0-6.6-49.5 86.3-33.3z"/></svg>